<?xml version="1.0" encoding="utf-8"?>
<!-- Generator: Adobe Illustrator 27.0.1, SVG Export Plug-In . SVG Version: 6.00 Build 0)  -->
<svg version="1.1" id="Layer_1" xmlns="http://www.w3.org/2000/svg" xmlns:xlink="http://www.w3.org/1999/xlink" x="0px" y="0px"
	 viewBox="0 0 344.9 64" style="enable-background:new 0 0 344.9 64;" xml:space="preserve">
<style type="text/css">
	.st0{fill:#E03D3D;}
	.st1{fill:#FFF7E8;}
</style>
<g>
	<path class="st0" d="M99.3,15.2l-4.1-4.1l-4,4c-2.5-2-5.4-3.4-8.7-3.9V8h4.3V2.3H72.4V8h4.3v3.1c-8.8,1.4-15.5,9-15.5,18.2
		c0,10.2,8.2,18.4,18.4,18.4S98,39.5,98,29.3c0-3.6-1.1-7-2.9-9.9L99.3,15.2z M81.6,33.6h-4.1V19.3h4.1V33.6z"/>
</g>
<g>
	<path class="st1" d="M8.1,46c-2.4-1.1-4.3-2.5-5.7-4.4C1,39.8,0.2,37.7,0,35.4h10.8c0.1,1.2,0.7,2.2,1.7,3c1,0.8,2.3,1.1,3.8,1.1
		c1.4,0,2.4-0.3,3.2-0.8c0.7-0.5,1.1-1.2,1.1-2.1c0-1-0.5-1.8-1.6-2.3c-1.1-0.5-2.8-1-5.2-1.6c-2.5-0.6-4.7-1.2-6.4-1.9
		c-1.7-0.7-3.2-1.7-4.4-3.1c-1.2-1.4-1.8-3.3-1.8-5.8c0-2,0.6-3.9,1.7-5.6c1.1-1.7,2.8-3,5-4c2.2-1,4.8-1.5,7.8-1.5
		c4.5,0,8,1.1,10.5,3.3c2.6,2.2,4,5.1,4.4,8.8H20.5c-0.2-1.2-0.7-2.2-1.6-2.9c-0.9-0.7-2.1-1.1-3.6-1.1c-1.3,0-2.2,0.2-2.9,0.7
		c-0.7,0.5-1,1.2-1,2c0,1,0.5,1.8,1.6,2.3c1.1,0.5,2.8,1,5.1,1.5c2.6,0.7,4.8,1.3,6.4,2c1.7,0.7,3.1,1.7,4.4,3.2
		c1.3,1.5,1.9,3.4,1.9,5.9c0,2.1-0.6,3.9-1.7,5.6c-1.2,1.6-2.8,2.9-5,3.8s-4.7,1.4-7.6,1.4C13.3,47.6,10.5,47.1,8.1,46z"/>
	<path class="st1" d="M57.2,37.9v9.2h-5.5c-3.9,0-7-1-9.2-2.9c-2.2-1.9-3.3-5.1-3.3-9.4V20.6h-4.3v-9h4.3V2.9H50v8.7h7.1v9H50v14.3
		c0,1.1,0.3,1.8,0.8,2.3c0.5,0.5,1.4,0.7,2.5,0.7H57.2z"/>
	<path class="st1" d="M119,12.6c1.9-1,4-1.5,6.6-1.5c2.9,0,5.6,0.7,8,2.2c2.4,1.5,4.3,3.6,5.6,6.4s2.1,6,2.1,9.6s-0.7,6.9-2.1,9.6
		s-3.3,4.9-5.6,6.4c-2.4,1.5-5,2.3-8,2.3c-2.5,0-4.6-0.5-6.5-1.5c-1.9-1-3.4-2.3-4.4-3.9V64h-10.9V11.6h10.9v5
		C115.7,14.9,117.2,13.6,119,12.6z M127.9,22.9c-1.5-1.5-3.4-2.3-5.6-2.3c-2.2,0-4,0.8-5.5,2.4c-1.5,1.6-2.3,3.7-2.3,6.4
		c0,2.7,0.8,4.9,2.3,6.4c1.5,1.6,3.3,2.4,5.5,2.4c2.2,0,4-0.8,5.5-2.4c1.5-1.6,2.3-3.7,2.3-6.5C130.2,26.5,129.4,24.4,127.9,22.9z"
		/>
	<path class="st1" d="M197.9,11.6l-9.6,35.5h-12l-5.6-23l-5.8,23h-12l-9.7-35.5h10.9l5,25.4l6-25.4h11.5l6,25.3l5-25.3H197.9z"/>
	<path class="st1" d="M202,19.7c1.4-2.8,3.3-4.9,5.6-6.4c2.4-1.5,5-2.2,8-2.2c2.5,0,4.7,0.5,6.6,1.5s3.3,2.4,4.4,4v-5h10.9v35.5
		h-10.9v-5c-1.1,1.7-2.5,3-4.4,4c-1.9,1-4.1,1.5-6.6,1.5c-2.9,0-5.5-0.8-7.9-2.3c-2.4-1.5-4.3-3.6-5.6-6.4c-1.4-2.8-2.1-6-2.1-9.6
		S200.6,22.4,202,19.7z M224.2,22.9c-1.5-1.6-3.3-2.4-5.5-2.4c-2.2,0-4,0.8-5.5,2.3c-1.5,1.5-2.3,3.7-2.3,6.4c0,2.7,0.8,4.9,2.3,6.5
		c1.5,1.6,3.3,2.4,5.5,2.4c2.2,0,4-0.8,5.5-2.4c1.5-1.6,2.3-3.7,2.3-6.4C226.5,26.6,225.7,24.5,224.2,22.9z"/>
	<path class="st1" d="M265,37.9v9.2h-5.5c-3.9,0-7-1-9.2-2.9c-2.2-1.9-3.3-5.1-3.3-9.4V20.6h-4.3v-9h4.3V2.9h10.9v8.7h7.1v9h-7.1
		v14.3c0,1.1,0.3,1.8,0.8,2.3c0.5,0.5,1.4,0.7,2.5,0.7H265z"/>
	<path class="st1" d="M271.2,19.7c1.5-2.8,3.6-4.9,6.3-6.4c2.7-1.5,5.8-2.2,9.3-2.2c4.5,0,8.2,1.2,11.2,3.5c3,2.3,5,5.6,5.9,9.9
		h-11.6c-1-2.7-2.9-4.1-5.7-4.1c-2,0-3.6,0.8-4.8,2.3c-1.2,1.5-1.8,3.8-1.8,6.6c0,2.9,0.6,5.1,1.8,6.6c1.2,1.6,2.8,2.3,4.8,2.3
		c2.8,0,4.7-1.4,5.7-4.1h11.6c-0.9,4.2-2.9,7.4-5.9,9.8c-3,2.4-6.7,3.6-11.1,3.6c-3.5,0-6.6-0.7-9.3-2.2c-2.7-1.5-4.8-3.6-6.3-6.4
		c-1.5-2.8-2.3-6-2.3-9.7C268.9,25.6,269.7,22.4,271.2,19.7z"/>
	<path class="st1" d="M341.2,15.2c2.5,2.7,3.7,6.4,3.7,11.1v20.7h-10.8V27.8c0-2.4-0.6-4.2-1.8-5.5c-1.2-1.3-2.9-2-5-2
		c-2.1,0-3.7,0.7-5,2c-1.2,1.3-1.8,3.2-1.8,5.5v19.3h-10.9V0h10.9v16.4c1.1-1.6,2.6-2.8,4.5-3.8s4.1-1.4,6.4-1.4
		C335.5,11.2,338.7,12.5,341.2,15.2z"/>
</g>
</svg>
